<svg width="18" height="20" viewBox="0 0 19 21" fill="none" xmlns="http://www.w3.org/2000/svg">
<path d="M7.49939 18.6265H11.4994C11.4994 19.6741 10.5994 20.5312 9.49939 20.5312C8.39939 20.5312 7.49939 19.6741 7.49939 18.6265ZM18.4994 16.7217V17.6741H0.49939V16.7217L2.49939 14.817V9.10268C2.49939 6.1503 4.49939 3.57887 7.49939 2.72173V2.43601C7.49939 1.38839 8.39939 0.53125 9.49939 0.53125C10.5994 0.53125 11.4994 1.38839 11.4994 2.43601V2.72173C14.4994 3.57887 16.4994 6.1503 16.4994 9.10268V14.817L18.4994 16.7217ZM14.4994 9.10268C14.4994 6.43601 12.2994 4.34077 9.49939 4.34077C6.69939 4.34077 4.49939 6.43601 4.49939 9.10268V15.7693H14.4994V9.10268Z" fill="#83929E"/>
</svg>
