<svg width="20" height="21" viewBox="0 0 20 21" fill="none" xmlns="http://www.w3.org/2000/svg">
<path d="M10 0.53125C15.523 0.53125 20 5.00825 20 10.5312C20 16.0542 15.523 20.5312 10 20.5312C4.477 20.5312 0 16.0542 0 10.5312C0 5.00825 4.477 0.53125 10 0.53125ZM10 2.53125C7.87827 2.53125 5.84344 3.3741 4.34315 4.8744C2.84285 6.37469 2 8.40952 2 10.5312C2 12.653 2.84285 14.6878 4.34315 16.1881C5.84344 17.6884 7.87827 18.5312 10 18.5312C12.1217 18.5312 14.1566 17.6884 15.6569 16.1881C17.1571 14.6878 18 12.653 18 10.5312C18 8.40952 17.1571 6.37469 15.6569 4.8744C14.1566 3.3741 12.1217 2.53125 10 2.53125ZM10 14.5312C10.2652 14.5312 10.5196 14.6366 10.7071 14.8241C10.8946 15.0117 11 15.266 11 15.5312C11 15.7965 10.8946 16.0508 10.7071 16.2384C10.5196 16.4259 10.2652 16.5312 10 16.5312C9.73478 16.5312 9.48043 16.4259 9.29289 16.2384C9.10536 16.0508 9 15.7965 9 15.5312C9 15.266 9.10536 15.0117 9.29289 14.8241C9.48043 14.6366 9.73478 14.5312 10 14.5312ZM10 5.03125C10.8423 5.03128 11.6583 5.3246 12.3078 5.86085C12.9573 6.3971 13.3998 7.14279 13.5593 7.96983C13.7188 8.79687 13.5853 9.65364 13.1818 10.393C12.7783 11.1323 12.1299 11.708 11.348 12.0212C11.2322 12.0638 11.1278 12.1326 11.043 12.2222C10.999 12.2723 10.992 12.3363 10.993 12.4023L11 12.5312C10.9997 12.7861 10.9021 13.0313 10.7272 13.2166C10.5522 13.402 10.313 13.5135 10.0586 13.5284C9.80416 13.5434 9.55362 13.4606 9.35817 13.297C9.16271 13.1334 9.0371 12.9013 9.007 12.6482L9 12.5312V12.2812C9 11.1283 9.93 10.4362 10.604 10.1652C10.8783 10.0557 11.1176 9.87352 11.2962 9.63824C11.4748 9.40296 11.5859 9.12347 11.6176 8.82981C11.6493 8.53614 11.6004 8.23938 11.4762 7.97139C11.352 7.7034 11.1571 7.47432 10.9125 7.30873C10.6679 7.14314 10.3829 7.04731 10.0879 7.03152C9.79295 7.01573 9.49927 7.08059 9.23839 7.21912C8.97752 7.35765 8.75931 7.56463 8.60719 7.81783C8.45508 8.07103 8.37481 8.36087 8.375 8.65625C8.375 8.92147 8.26964 9.17582 8.08211 9.36336C7.89457 9.55089 7.64022 9.65625 7.375 9.65625C7.10978 9.65625 6.85543 9.55089 6.66789 9.36336C6.48036 9.17582 6.375 8.92147 6.375 8.65625C6.375 7.69484 6.75692 6.77281 7.43674 6.09299C8.11656 5.41317 9.03859 5.03125 10 5.03125Z" fill="#83929E"/>
</svg>
