<svg width="20" height="21" viewBox="0 0 20 21" fill="none" xmlns="http://www.w3.org/2000/svg">
<path d="M6.10858 10.5312C6.10858 8.42578 7.81525 6.78125 10.0003 6.78125C12.1488 6.78125 13.892 8.42578 13.892 10.5312C13.892 12.6016 12.1488 14.2812 10.0003 14.2812C7.81525 14.2812 6.10858 12.6016 6.10858 10.5312ZM10.0003 8.65625C8.926 8.65625 8.05443 9.49609 8.05443 10.5312C8.05443 11.5664 8.926 12.4062 10.0003 12.4062C11.0745 12.4062 11.9461 11.5664 11.9461 10.5312C11.9461 9.49609 11.0745 8.65625 10.0003 8.65625ZM11.5043 0.531262C12.4042 0.531262 13.1866 1.12461 13.3974 1.96641L13.7136 3.23477C14.0582 3.39687 14.3865 3.58086 14.6987 3.78437L16 3.41523C16.8634 3.17031 17.7877 3.52617 18.2377 4.27617L19.7417 6.78516C20.1876 7.53516 20.0457 8.48438 19.3971 9.08203L18.412 9.94922C18.4242 10.1641 18.4323 10.3477 18.4323 10.5312C18.4323 10.7148 18.4242 10.8984 18.412 11.0781L19.3971 11.9805C20.0457 12.5781 20.1876 13.5273 19.7417 14.2773L18.2377 16.7852C17.7877 17.5352 16.8634 17.8906 16 17.6484L14.6987 17.2773C14.3865 17.4805 14.0582 17.6641 13.7136 17.8281L13.3974 19.0977C13.1866 19.9375 12.4042 20.5312 11.5043 20.5312H8.49629C7.59634 20.5312 6.81395 19.9375 6.60315 19.0977L6.28695 17.8281C5.94237 17.6641 5.61401 17.4805 5.30186 17.2773L3.96409 17.6484C3.13832 17.8906 2.21445 17.5352 1.76488 16.7852L0.260897 14.2773C-0.188676 13.5273 -0.0464665 12.5781 0.604663 11.9805L1.58732 11.0781C1.57475 10.8984 1.56826 10.7148 1.56826 10.4961C1.56826 10.3477 1.57475 10.1641 1.58732 9.94922L0.604663 9.08203C-0.046507 8.48438 -0.188676 7.53516 0.260897 6.78516L1.76488 4.27617C2.21445 3.52617 3.13832 3.17031 3.96409 3.41523L5.30186 3.78437C5.61401 3.58086 5.94237 3.39687 6.28695 3.23477L6.60315 1.96641C6.81395 1.12422 7.59634 0.53125 8.49629 0.53125L11.5043 0.531262ZM7.95308 4.57812L7.49905 4.76172C6.98421 4.96875 6.50586 5.23828 6.07209 5.55859L5.67887 5.84766L3.45006 5.21484L1.94568 7.72266L3.62803 9.26562L3.566 9.73438C3.53195 9.99609 3.51411 10.2617 3.51411 10.5312C3.51411 10.8008 3.53195 11.0664 3.566 11.3281L3.62803 11.7969L1.94608 13.3398L3.45006 15.8477L5.67887 15.2148L6.07209 15.5039C6.50586 15.8242 6.98421 16.0938 7.49905 16.3008L7.95308 16.4844L8.49629 18.6562H11.5043L12.0475 16.4844L12.5015 16.3008C13.0163 16.0938 13.4947 15.8242 13.9285 15.5039L14.3217 15.2148L16.5513 15.8477L18.0553 13.3398L16.3729 11.7969L16.4337 11.3281C16.4702 11.0664 16.4864 10.8008 16.4864 10.5312C16.4864 10.2617 16.4702 9.99609 16.4337 9.73438L16.3729 9.26562L18.0553 7.72266L16.5513 5.21484L14.3217 5.84766L13.9285 5.55859C13.4947 5.23828 13.0163 4.96875 12.5015 4.76172L12.0475 4.57812L11.5043 2.40625H8.49629L7.95308 4.57812Z" fill="#83929E"/>
</svg>
